<svg xmlns="http://www.w3.org/2000/svg" xmlns:xlink="http://www.w3.org/1999/xlink" version="1.1" width="256" height="256" viewBox="0 0 256 256" xml:space="preserve">

<defs>
</defs>
<g style="stroke: none; stroke-width: 0; stroke-dasharray: none; stroke-linecap: butt; stroke-linejoin: miter; stroke-miterlimit: 10; fill: none; fill-rule: nonzero; opacity: 1;" transform="translate(1.4065934065934016 1.4065934065934016) scale(2.81 2.81)" >
	<circle cx="45" cy="45" r="45" style="stroke: none; stroke-width: 1; stroke-dasharray: none; stroke-linecap: butt; stroke-linejoin: miter; stroke-miterlimit: 10; fill: rgb(32,196,203); fill-rule: nonzero; opacity: 1;" transform="  matrix(1 0 0 1 0 0) "/>
	<path d="M 37.158 48.768 l -26.04 -10.256 v 20.026 c 0 3.07 3.256 5.582 7.237 5.582 h 37.606 c 3.98 0 7.237 -2.512 7.237 -5.582 V 38.513 L 37.158 48.768 z" style="stroke: none; stroke-width: 1; stroke-dasharray: none; stroke-linecap: butt; stroke-linejoin: miter; stroke-miterlimit: 10; fill: rgb(27,167,173); fill-rule: nonzero; opacity: 1;" transform=" matrix(1 0 0 1 0 0) " stroke-linecap="round" />
	<path d="M 37.158 41.747 l -26.04 -10.256 c 0 -3.07 3.256 -5.582 7.237 -5.582 h 37.606 c 3.98 0 7.237 2.512 7.237 5.582 L 37.158 41.747 z" style="stroke: none; stroke-width: 1; stroke-dasharray: none; stroke-linecap: butt; stroke-linejoin: miter; stroke-miterlimit: 10; fill: rgb(27,167,173); fill-rule: nonzero; opacity: 1;" transform=" matrix(1 0 0 1 0 0) " stroke-linecap="round" />
	<path d="M 40.106 45.82 l -26.04 -10.256 V 55.59 c 0 3.07 3.256 5.582 7.237 5.582 h 37.606 c 3.98 0 7.237 -2.512 7.237 -5.582 V 35.565 L 40.106 45.82 z" style="stroke: none; stroke-width: 1; stroke-dasharray: none; stroke-linecap: butt; stroke-linejoin: miter; stroke-miterlimit: 10; fill: rgb(255,255,255); fill-rule: nonzero; opacity: 1;" transform=" matrix(1 0 0 1 0 0) " stroke-linecap="round" />
	<path d="M 40.106 38.799 l -26.04 -10.256 c 0 -3.07 3.256 -5.582 7.237 -5.582 h 37.606 c 3.98 0 7.237 2.512 7.237 5.582 L 40.106 38.799 z" style="stroke: none; stroke-width: 1; stroke-dasharray: none; stroke-linecap: butt; stroke-linejoin: miter; stroke-miterlimit: 10; fill: rgb(255,255,255); fill-rule: nonzero; opacity: 1;" transform=" matrix(1 0 0 1 0 0) " stroke-linecap="round" />
	<circle cx="63.926" cy="61.916" r="17.196" style="stroke: none; stroke-width: 1; stroke-dasharray: none; stroke-linecap: butt; stroke-linejoin: miter; stroke-miterlimit: 10; fill: rgb(32,196,203); fill-rule: nonzero; opacity: 1;" transform="  matrix(1 0 0 1 0 0) "/>
	<path d="M 69.511 67.559 H 51.813 c -1.657 0 -3 -1.343 -3 -3 s 1.343 -3 3 -3 h 17.697 c 1.657 0 3 1.343 3 3 S 71.168 67.559 69.511 67.559 z" style="stroke: none; stroke-width: 1; stroke-dasharray: none; stroke-linecap: butt; stroke-linejoin: miter; stroke-miterlimit: 10; fill: rgb(27,167,173); fill-rule: nonzero; opacity: 1;" transform=" matrix(1 0 0 1 0 0) " stroke-linecap="round" />
	<path d="M 60.662 76.408 c -1.657 0 -3 -1.343 -3 -3 V 55.71 c 0 -1.657 1.343 -3 3 -3 s 3 1.343 3 3 v 17.698 C 63.662 75.065 62.319 76.408 60.662 76.408 z" style="stroke: none; stroke-width: 1; stroke-dasharray: none; stroke-linecap: butt; stroke-linejoin: miter; stroke-miterlimit: 10; fill: rgb(27,167,173); fill-rule: nonzero; opacity: 1;" transform=" matrix(1 0 0 1 0 0) " stroke-linecap="round" />
	<path d="M 72.459 64.611 H 54.762 c -1.657 0 -3 -1.343 -3 -3 s 1.343 -3 3 -3 h 17.697 c 1.657 0 3 1.343 3 3 S 74.116 64.611 72.459 64.611 z" style="stroke: none; stroke-width: 1; stroke-dasharray: none; stroke-linecap: butt; stroke-linejoin: miter; stroke-miterlimit: 10; fill: rgb(255,255,255); fill-rule: nonzero; opacity: 1;" transform=" matrix(1 0 0 1 0 0) " stroke-linecap="round" />
	<path d="M 63.61 73.46 c -1.657 0 -3 -1.343 -3 -3 V 52.763 c 0 -1.657 1.343 -3 3 -3 s 3 1.343 3 3 V 70.46 C 66.61 72.117 65.268 73.46 63.61 73.46 z" style="stroke: none; stroke-width: 1; stroke-dasharray: none; stroke-linecap: butt; stroke-linejoin: miter; stroke-miterlimit: 10; fill: rgb(255,255,255); fill-rule: nonzero; opacity: 1;" transform=" matrix(1 0 0 1 0 0) " stroke-linecap="round" />
</g>
</svg>